<svg xmlns="http://www.w3.org/2000/svg" width="24" height="24" fill="none" viewBox="0 0 24 24"><path fill="#000" d="M12.051 13.827a3.776 3.776 0 1 1 0-7.552 3.776 3.776 0 0 1 0 7.552Zm0-6.2a2.427 2.427 0 0 0-2.423 2.424 2.42 2.42 0 0 0 2.423 2.424 2.42 2.42 0 0 0 2.424-2.424 2.42 2.42 0 0 0-2.424-2.423Z"/><path fill="#000" d="M12.051 23.228a.803.803 0 0 1-.597-.27l-6.707-7.744C3.485 13.647 3 12.204 3 10.05c0-2.423.947-4.689 2.649-6.402A9.023 9.023 0 0 1 12.05 1c2.424 0 4.69.947 6.403 2.649a8.976 8.976 0 0 1 2.648 6.402c0 2.153-.484 3.596-1.724 5.14l-6.73 7.766a.803.803 0 0 1-.597.27Zm0-20.65a7.435 7.435 0 0 0-5.286 2.187 7.435 7.435 0 0 0-2.187 5.286c0 1.804.36 2.886 1.375 4.148l6.098 7.034 6.12-7.056c.993-1.24 1.353-2.334 1.353-4.126a7.435 7.435 0 0 0-2.186-5.286 7.435 7.435 0 0 0-5.287-2.187Z"/></svg>